# xmcd CD database file
#
# Track frame offsets:
#	150
#	14202
#	26310
#	40807
#	55705
#	67523
#	85241
#	102081
#	118341
#	127899
#	138763
#	154063
#
# Disc length: 2203 seconds
#
# Revision: 0
# Processed by: cddbd v1.5.1PL2 Copyright (c) Steve Scherf et al.
# Submitted via: CDex 1.51
#
DISCID=8f08990c
DTITLE=Ruben Gonzales - Sentimiento
DYEAR=2000
DGENRE=Jazz
TTITLE0=Soplete
TTITLE1=Serenate para los monos
TTITLE2=Sancho
TTITLE3=Ambrosio
TTITLE4=Ciudad oscuro
TTITLE5=Moneto
TTITLE6=Moby dick
TTITLE7=De que te quejas
TTITLE8=Zancudo
TTITLE9=Que infelicidad
TTITLE10=Sentimiento
TTITLE11=Fantoche
EXTD=YEAR: 2000
EXTT0=
EXTT1=
EXTT2=
EXTT3=
EXTT4=
EXTT5=
EXTT6=
EXTT7=
EXTT8=
EXTT9=
EXTT10=
EXTT11=
PLAYORDER=
